<?xml version="1.0" encoding="UTF-8" standalone="no"?>
<svg
   width="732.14935"
   height="545.03882"
   viewBox="0 0 732.14938 545.03884"
   role="img"
   artist="Katerina Limpitsouni"
   source="https://undraw.co/"
   version="1.1"
   id="svg28"
   sodipodi:docname="emails_done_fast.svg"
   inkscape:version="1.4.2 (ebf0e940d0, 2025-05-08)"
   xmlns:inkscape="http://www.inkscape.org/namespaces/inkscape"
   xmlns:sodipodi="http://sodipodi.sourceforge.net/DTD/sodipodi-0.dtd"
   xmlns="http://www.w3.org/2000/svg"
   xmlns:svg="http://www.w3.org/2000/svg">
  <defs
     id="defs28" />
  <sodipodi:namedview
     id="namedview28"
     pagecolor="#ffffff"
     bordercolor="#000000"
     borderopacity="0.25"
     inkscape:showpageshadow="2"
     inkscape:pageopacity="0.0"
     inkscape:pagecheckerboard="0"
     inkscape:deskcolor="#d1d1d1"
     inkscape:zoom="2.1236474"
     inkscape:cx="385.18636"
     inkscape:cy="273.11502"
     inkscape:window-width="2560"
     inkscape:window-height="1371"
     inkscape:window-x="0"
     inkscape:window-y="0"
     inkscape:window-maximized="1"
     inkscape:current-layer="svg28" />
  <path
     d="m 199.6431,8.0732677 a 12.33393,12.33393 0 0 1 -7.26937,15.6973003 12.11776,12.11776 0 0 1 -2.06454,0.56907 l -7.0011,42.86807 -16.42309,-15.16382 9.16618,-38.38348 a 12.378,12.378 0 0 1 10.84307,-13.58200033 12.052,12.052 0 0 1 12.7488,7.99480003 z"
     fill="#ffb6b6"
     id="path1" />
  <path
     d="m 78.44082,105.20746 c 0,0 12.74635,-16.841302 59.00006,-16.380002 l 26.25371,-9.53871 6,-55 21,5 -3,68 -45,26.000002 -59,12 z"
     fill="#e6e7e8"
     id="path2" />
  <polygon
     points="119.255,519.834 131.372,524.997 157.055,480.719 139.172,473.099 "
     fill="#ffb6b6"
     id="polygon2"
     transform="translate(-111.88789,-5.7232704e-4)" />
  <polygon
     points="219.383,531.3 232.553,531.299 238.819,480.497 219.38,480.498 "
     fill="#ffb6b6"
     id="polygon3"
     transform="translate(-111.88789,-5.7232704e-4)" />
  <path
     d="m 107.0313,545.0388 40.50158,-0.002 v -0.51221 a 15.76521,15.76521 0 0 0 -15.76434,-15.7641 h -0.001 l -7.39813,-5.61261 -13.80328,5.61347 -3.53553,1.2e-4 z"
     fill="#2f2e41"
     id="path3" />
  <path
     d="m 0,528.62874 37.25941,15.87813 0.20082,-0.47119 a 15.76522,15.76522 0 0 0 -8.3215,-20.6827 l -9e-4,-3.8e-4 -4.60525,-8.06384 -14.899,-0.24786 -3.2525,-1.38606 z"
     fill="#2f2e41"
     id="path4" />
  <path
     d="m 120.4146,230.63603 20.01672,121.8841 -5.44751,18.16284 7.14826,12.86359 -10.49736,112.97021 4.26111,9.38123 -11.90554,7.34246 h -24.226 L 98.47857,410.96764 92.49432,395.95177 v -8.27558 l -12.18219,-62.36358 -2.243,71.33618 -3.54358,15.03937 2.97656,10.70813 -3.88928,7.50195 -33.33112,71.57062 H 13.11638 l 2.101,-16.18549 v 0 c -4.86706,-2.46417 7.30734,-9.66618 8.4772,-14.99461 l -4,-9 4,-17 3.66763,-33.21843 -3.86785,-70.11856 1.82,-94.42334 31.77835,-24.30048 z"
     fill="#2f2e41"
     id="path5" />
  <circle
     id="b6492e21-528b-49f6-adbd-cfab639933c4"
     data-name="ab6171fa-7d69-4734-b81c-8dff60f9761b"
     cx="71.668411"
     cy="42.669609"
     r="27.45257"
     fill="#ffb6b6" />
  <path
     d="m 25.20439,250.82187 a 0.52606,0.52606 0 0 1 -0.14405,-0.0195 c -0.50683,-0.1416 -0.90722,-0.25293 0.92188,-16.06884 l 1.97412,-12.50147 -1.92725,-11.03856 -3.2417,-3.2417 5.21,-5.20947 -3.19288,-23.62891 -8.67919,-45.84326 A 36.57225,36.57225 0 0 1 36.20979,93.533828 l 17.08692,-15.84864 31.44238,-0.23535 10.05957,13.07714 26.61325,9.04052 -4.4126,91.293462 3.09521,7.22217 -0.26513,0.23974 c -0.0205,0.0186 -2.08252,1.8833 -3.00879,2.90869 -0.44873,0.63721 0.39306,5.396 1.43261,9.43653 l 1.333,9.97412 -3.35937,2.40088 4.36767,5.15918 1.26465,9.48388 -0.71338,-0.17724 c -0.80371,-0.2002 -80.4873,-19.583 -95.39111,12.896 a 0.60141,0.60141 0 0 1 -0.55028,0.417 z"
     fill="#e6e7e8"
     id="path6" />
  <path
     d="m 64.6455,68.777958 q -0.17592,-0.38733 -0.35087,-0.77733 c 0.045,10e-4 0.0894,0.008 0.1344,0.009 z"
     fill="#2f2e41"
     id="path7" />
  <path
     d="m 43.4524,16.465458 a 7.6409,7.6409 0 0 1 4.78651,-2.06946 c 1.77516,0.0572 3.57535,1.66053 3.20756,3.39817 A 28.211,28.211 0 0 1 85.39664,5.0637577 c 4.41211,1.55663 8.73888,4.67081 9.75239,9.2383503 a 8.32041,8.32041 0 0 0 1.04813,3.41026 3.893,3.893 0 0 0 4.14333,1.04969 l 0.0436,-0.0128 a 1.29709,1.29709 0 0 1 1.56729,1.831 l -1.24839,2.32827 a 10.00412,10.00412 0 0 0 4.76622,-0.10137 1.296,1.296 0 0 1 1.37619,2.01677 22.58933,22.58933 0 0 1 -18.01175,9.2583 c -4.988,-0.0304 -10.02736,-1.7495 -14.88181,-0.60245 a 12.9269,12.9269 0 0 0 -8.69453,18.14673 c -1.49131,-1.63118 -4.37416,-1.245 -5.89966,0.35435 a 8.09147,8.09147 0 0 0 -1.76664,6.19126 28.72624,28.72624 0 0 0 2.94916,9.64245 28.82633,28.82633 0 0 1 -17.08773,-51.3491 z"
     fill="#2f2e41"
     id="path8" />
  <path
     d="M 445.16602,39.014458 H 326.34314 a 4.62947,4.62947 0 0 1 0,-9.25893 h 118.82288 c 5.97023,-0.0834 6.02995,9.34299 0,9.25893 z"
     fill="#e4e4e4"
     id="path12" />
  <path
     d="M 605.23378,63.231058 H 326.34314 a 4.62947,4.62947 0 0 1 0,-9.25893 h 278.89064 c 5.97023,-0.0833 6.02993,9.34302 0,9.25893 z"
     fill="#e4e4e4"
     id="path13" />
  <circle
     cx="702.39014"
     cy="46.493279"
     r="29.75918"
     fill="#eab308"
     id="circle13" />
  <path
     d="m 698.33035,61.981558 a 3.30935,3.30935 0 0 1 -2.648,-1.32439 l -8.11876,-10.8252 a 3.31022,3.31022 0 1 1 5.29648,-3.97209 l 5.31164,7.08158 13.6421,-20.46285 a 3.3103731,3.3103731 0 1 1 5.5088,3.67252 l -16.2376,24.35625 a 3.31173,3.31173 0 0 1 -2.66252,1.4731 c -0.0307,5.4e-4 -0.0614,0.001 -0.0921,0.001 z"
     fill="#ffffff"
     id="path14" />
  <path
     d="m 266.74143,18.590048 h -75.368 a 4.44637,4.44637 0 0 0 -4.44134,4.44135 v 46.92377 a 4.4464,4.4464 0 0 0 4.44134,4.44134 h 75.368 a 4.44638,4.44638 0 0 0 4.44141,-4.44134 v -46.92377 a 4.44633,4.44633 0 0 0 -4.44141,-4.44135 z m 1.45752,33.70594 a 18.25791,18.25791 0 0 1 -17.95043,18.18647 c -7.64747,0.0995 4.23126,0.13837 -4.99213,0.13837 -21.09088,0 -43.08283,-0.20154 -51.28827,-0.33222 a 4.1376,4.1376 0 0 1 -4.05225,-4.12073 v -43.133 a 1.46245,1.46245 0 0 1 1.45722,-1.46082 h 75.36529 a 1.46228,1.46228 0 0 1 1.46057,1.45691 z"
     fill="#cacaca"
     id="path15" />
  <path
     d="m 256.79906,48.538568 h -57.42252 a 2.468,2.468 0 0 1 -2.32,-1.636 l -8.86847,-24.88111 a 2.463,2.463 0 0 1 2.31649,-3.28988 l 77.013,-0.13668 h 0.003 a 2.463,2.463 0 0 1 2.26374,3.43311 l -0.13428,-0.0575 0.13428,0.0575 -10.72192,25.01783 a 2.46,2.46 0 0 1 -2.26375,1.49273 z"
     fill="#cacaca"
     id="path16" />
  <circle
     cx="229.01414"
     cy="48.538567"
     r="6.1357899"
     fill="#3f3d56"
     id="circle16" />
  <path
     d="M 445.16602,171.03168 H 326.34314 a 4.62947,4.62947 0 0 1 0,-9.25893 h 118.82288 c 5.97023,-0.0833 6.02995,9.34302 0,9.25893 z"
     fill="#e4e4e4"
     id="path17" />
  <path
     d="M 605.23378,195.24831 H 326.34314 a 4.629465,4.629465 0 0 1 0,-9.25893 h 278.89064 c 5.97023,-0.0833 6.02993,9.34301 0,9.25893 z"
     fill="#e4e4e4"
     id="path18" />
  <circle
     cx="702.39014"
     cy="178.51051"
     r="29.75918"
     fill="#eab308"
     id="circle18" />
  <path
     d="m 698.33035,193.9988 a 3.30932,3.30932 0 0 1 -2.648,-1.32439 l -8.11876,-10.82519 a 3.31022,3.31022 0 1 1 5.29648,-3.97209 l 5.31157,7.08155 13.64207,-20.46285 a 3.3103703,3.3103703 0 1 1 5.5088,3.67251 l -16.2375,24.35628 a 3.31172,3.31172 0 0 1 -2.66252,1.47311 c -0.0307,5.3e-4 -0.0614,0.001 -0.0921,0.001 z"
     fill="#ffffff"
     id="path19" />
  <path
     d="m 266.74143,150.60727 h -75.368 a 4.44639,4.44639 0 0 0 -4.44134,4.44134 v 46.92385 a 4.44643,4.44643 0 0 0 4.44134,4.44134 h 75.368 a 4.44641,4.44641 0 0 0 4.44141,-4.44134 v -46.92385 a 4.44636,4.44636 0 0 0 -4.44141,-4.44134 z m 1.45752,33.706 a 18.25786,18.25786 0 0 1 -17.95043,18.1864 c -7.64747,0.0996 4.23126,0.13837 -4.99213,0.13837 -21.09088,0 -43.08283,-0.20154 -51.28827,-0.33222 a 4.1375,4.1375 0 0 1 -4.05225,-4.12066 v -43.133 a 1.46239,1.46239 0 0 1 1.45722,-1.46081 h 75.36529 a 1.46227,1.46227 0 0 1 1.46057,1.4569 z"
     fill="#cacaca"
     id="path20" />
  <path
     d="m 256.79906,180.55581 h -57.42252 a 2.46794,2.46794 0 0 1 -2.32,-1.63595 l -8.86851,-24.88113 a 2.463,2.463 0 0 1 2.31649,-3.28989 l 77.013,-0.13667 h 0.003 a 2.463,2.463 0 0 1 2.26374,3.43311 l -0.13428,-0.0575 0.13428,0.0575 -10.72188,25.01781 a 2.46,2.46 0 0 1 -2.26375,1.49272 z"
     fill="#cacaca"
     id="path21" />
  <circle
     cx="229.01414"
     cy="180.55582"
     r="6.1357899"
     fill="#3f3d56"
     id="circle21" />
  <path
     d="M 445.16602,303.04893 H 326.34314 a 4.62947,4.62947 0 0 1 0,-9.25893 h 118.82288 c 5.97023,-0.0833 6.02995,9.34301 0,9.25893 z"
     fill="#e4e4e4"
     id="path22" />
  <path
     d="M 605.23378,327.26555 H 326.34314 a 4.62946,4.62946 0 0 1 0,-9.25892 h 278.89064 c 5.97023,-0.0833 6.02993,9.34301 0,9.25892 z"
     fill="#e4e4e4"
     id="path23" />
  <circle
     cx="702.39014"
     cy="310.52777"
     r="29.75918"
     fill="#eab308"
     id="circle23" />
  <path
     d="m 698.33035,326.01605 a 3.30935,3.30935 0 0 1 -2.648,-1.32439 l -8.11873,-10.8252 a 3.310222,3.310222 0 1 1 5.29648,-3.9721 l 5.31157,7.08156 13.64204,-20.46285 a 3.3103703,3.3103703 0 1 1 5.5088,3.67251 l -16.2375,24.35629 a 3.31171,3.31171 0 0 1 -2.66252,1.4731 c -0.0307,5.4e-4 -0.0614,10e-4 -0.0921,10e-4 z"
     fill="#ffffff"
     id="path24" />
  <path
     d="m 266.74143,282.62454 h -75.368 a 4.44636,4.44636 0 0 0 -4.44134,4.44134 v 46.92377 a 4.44637,4.44637 0 0 0 4.44134,4.44135 h 75.368 a 4.44635,4.44635 0 0 0 4.44141,-4.44135 v -46.92377 a 4.44636,4.44636 0 0 0 -4.44141,-4.44134 z m 1.45752,33.70593 a 18.25791,18.25791 0 0 1 -17.95043,18.18646 c -7.64747,0.0996 4.23126,0.13837 -4.99213,0.13837 -21.09088,0 -43.08283,-0.20154 -51.28827,-0.33221 a 4.13756,4.13756 0 0 1 -4.05225,-4.12073 v -43.133 a 1.46244,1.46244 0 0 1 1.45722,-1.46081 h 75.36529 a 1.46233,1.46233 0 0 1 1.46057,1.457 z"
     fill="#cacaca"
     id="path25" />
  <path
     d="m 256.79906,312.57306 h -57.42252 a 2.46794,2.46794 0 0 1 -2.32,-1.636 l -8.86851,-24.88113 a 2.463,2.463 0 0 1 2.31649,-3.28988 l 77.013,-0.13668 h 0.003 a 2.463,2.463 0 0 1 2.26374,3.43312 l -0.13428,-0.0575 0.13428,0.0575 -10.72188,25.01785 a 2.46,2.46 0 0 1 -2.26375,1.49272 z"
     fill="#cacaca"
     id="path26" />
  <circle
     cx="229.01414"
     cy="312.57306"
     r="6.1357899"
     fill="#3f3d56"
     id="circle26" />
  <path
     d="m 103.67605,253.49203 a 12.33393,12.33393 0 0 1 -12.51763,-11.93976 12.1177,12.1177 0 0 1 0.12655,-2.1378 l -38.32559,-20.441 19.647,-10.66087 33.38254,21.04558 a 12.378,12.378 0 0 1 9.3636,14.64124 12.052,12.052 0 0 1 -11.67642,9.49263 z"
     fill="#ffb6b6"
     id="path27" />
  <path
     d="m 86.679,238.80087 -64.04688,-25.002 -10.18213,-51.32661 3.78125,-29.51123 a 30.2009,30.2009 0 0 1 34.62354,-26 l 0.21484,0.0337 0.12207,0.18017 c 0.48877,0.72217 11.78613,18.17871 -3.417,61.49121 l 0.56152,27.52588 50.36475,23.51026 z"
     fill="#e6e7e8"
     id="path28" />
</svg>
