<?xml version="1.0" encoding="UTF-8" standalone="no"?>
<svg
   width="652.45557"
   height="494.94022"
   viewBox="0 0 652.45557 494.94022"
   role="img"
   artist="Katerina Limpitsouni"
   source="https://undraw.co/"
   version="1.1"
   id="svg24"
   sodipodi:docname="handles_complaints.svg"
   inkscape:version="1.4.2 (ebf0e940d0, 2025-05-08)"
   xmlns:inkscape="http://www.inkscape.org/namespaces/inkscape"
   xmlns:sodipodi="http://sodipodi.sourceforge.net/DTD/sodipodi-0.dtd"
   xmlns="http://www.w3.org/2000/svg"
   xmlns:svg="http://www.w3.org/2000/svg">
  <defs
     id="defs24" />
  <sodipodi:namedview
     id="namedview24"
     pagecolor="#ffffff"
     bordercolor="#000000"
     borderopacity="0.25"
     inkscape:showpageshadow="2"
     inkscape:pageopacity="0.0"
     inkscape:pagecheckerboard="0"
     inkscape:deskcolor="#d1d1d1"
     inkscape:zoom="1.7053783"
     inkscape:cx="297.29474"
     inkscape:cy="206.40582"
     inkscape:window-width="2560"
     inkscape:window-height="1371"
     inkscape:window-x="0"
     inkscape:window-y="0"
     inkscape:window-maximized="1"
     inkscape:current-layer="g24" />
  <g
     transform="translate(-454.09044,-337.36334)"
     id="g24">
    <path
       d="m 699.93814,418.95443 h 205.528 c 9.871,0 17.872,6.251 17.872,13.963 v 16.58 c 0,7.711 -8,13.963 -17.872,13.963 h -205.528 c -9.872,0 -17.872,-6.251 -17.872,-13.963 v -16.58 c 0,-7.712 8,-13.963 17.872,-13.963 z"
       fill="#f2f2f2"
       id="path1" />
    <g
       transform="translate(454.089,337.363)"
       id="g12">
      <rect
         width="27.497"
         height="36.242001"
         transform="translate(337.978,433.438)"
         fill="#ffb9b9"
         id="rect1"
         x="0"
         y="0" />
      <path
         d="m 237.2,598.367 h 58.45 a 33.713,33.713 0 0 0 14.519,-3.308 l 10.776,-5.18 a 6.471,6.471 0 0 0 -1.078,-12.069 l -22.23,-6.151 -38.031,-19.99 -0.028,0.144 c -0.711,3.6 -1.813,9.044 -1.953,9.374 -3.9,4.468 -7.907,6.527 -11.908,6.121 -6.98,-0.708 -11.62,-8.767 -11.666,-8.849 l -0.035,-0.062 -0.071,0.007 a 4.629,4.629 0 0 0 -3.593,1.959 c -1.592,2.4 -0.621,6.1 -0.461,6.656 -1.907,1.866 -2.763,12.285 -2.829,13.126 -2.757,2.922 -4.067,5.732 -3.894,8.351 0.152,2.289 1.421,4.415 3.773,6.319 a 16.323,16.323 0 0 0 10.261,3.552 z"
         transform="translate(105.469,-103.673)"
         fill="#090814"
         id="path2" />
      <path
         d="m 516.437,201.656 a 37.847,37.847 0 1 1 49.186,36.117 l -7.316,48.353 -37.3,-31.082 c 0,0 8.057,-10.263 12.379,-21.836 a 37.806,37.806 0 0 1 -16.95,-31.552 z"
         transform="translate(-489.648,-149.056)"
         fill="#ffb9b9"
         id="path3" />
      <path
         d="m 423.15,236.869 53.268,2.557 6.36,14.311 c 0,0 61.683,27.4 65.194,54.063 0,0 15.916,44.391 50.883,42.932 34.967,-1.459 -68.374,100.176 -68.374,100.176 L 423.945,315.751 419.97,253.194 Z"
         transform="translate(-395.839,-140.507)"
         fill="#eab308"
         id="path4" />
      <path
         d="m 453.606,417.683 21.592,-2.446 c -5.5,11.672 -3.574,38.928 0.369,66.126 5.205,35.823 13.94,101.715 13.94,101.715 l 36.571,-9.495 V 394.56 c 0,-23.881 -69.042,-34.738 -120.693,-39.52 -30.852,-2.848 -55.5,-3.541 -55.5,-3.541 l -71.489,86.01 z"
         transform="translate(-157.696,-127.095)"
         fill="#090814"
         id="path5" />
      <rect
         width="27.497"
         height="36.242001"
         transform="rotate(-145.769,198.16976,183.62697)"
         fill="#ffb9b9"
         id="rect5"
         x="0"
         y="0" />
      <path
         d="m 334.132,545.4 c 1.329,-2.256 3.988,-3.842 7.919,-4.7 0.525,-0.659 7.093,-8.791 9.718,-9.271 0.178,-0.548 1.452,-4.144 4.122,-5.239 a 4.168,4.168 0 0 1 2.714,-0.146 6,6 0 0 1 1.363,0.548 l 0.067,0.033 -0.011,0.067 c -0.011,0.1 -0.7,9.372 4.669,13.885 3.083,2.58 7.551,3.139 13.292,1.642 0.3,-0.2 4.267,-4.077 6.881,-6.657 l 0.112,-0.1 0.212,0.391 19.983,37.532 14.912,17.593 a 6.463,6.463 0 0 1 -5.9,10.578 L 402.37,599.78 a 33.832,33.832 0 0 1 -13.862,-5.428 l -48.333,-32.885 a 16.348,16.348 0 0 1 -6.478,-8.713 c -0.872,-2.893 -0.727,-5.361 0.435,-7.354 z"
         transform="translate(-114.391,-106.69)"
         fill="#090814"
         id="path6" />
      <path
         d="m 338.354,444.312 c -21.982,36.459 -44.211,95.918 -44.211,95.918 l 6,2.145 26.753,9.562 2.826,1.016 30.6,-44.96 c 17.581,-25.847 38.492,-56.587 50.511,-74.236 V 421.19 c 0,-23.881 -69.042,-34.738 -120.693,-39.52 l 69.635,36.671 c -6.532,3.859 -13.96,13.583 -21.421,25.971 z"
         transform="translate(-55.558,-123.564)"
         fill="#090814"
         id="path7" />
      <path
         d="m 328.734,319.584 v 0 a 29.653,29.653 0 0 1 46.485,0.815 l 91.447,119.715 145.756,-16.762 a 26.25,26.25 0 0 1 29.172,24.065 v 0 a 26.25,26.25 0 0 1 -22.437,28 L 452.008,499.446 A 56.982,56.982 0 0 1 394.6,471.62 L 326,353.27 a 29.653,29.653 0 0 1 2.735,-33.686 z"
         transform="translate(-322,-132.097)"
         fill="#e6e6e6"
         id="path8" />
      <rect
         width="20.671"
         height="162.854"
         transform="translate(257.874,331.867)"
         fill="#e6e6e6"
         id="rect8"
         x="0"
         y="0" />
      <rect
         width="20.671"
         height="162.854"
         transform="translate(116.014,331.867)"
         fill="#e6e6e6"
         id="rect9"
         x="0"
         y="0" />
      <path
         d="m 525.506,270.983 c 0,0 5.918,14.5 24.391,10.184 l 37.472,-8.761 c 0,0 -51.527,-68.306 -36.332,-63.073 15.195,5.233 40.208,-39.966 40.208,-39.966 l 15.182,16.419 c 0,0 22.006,-15.18 -10.594,-29.675 0,0 -38.668,-16.427 -68.888,7.448 -30.22,23.875 -1.441,107.424 -1.441,107.424 v 0 z"
         transform="translate(-507.516,-150.601)"
         fill="#090814"
         id="path9" />
      <path
         d="m 570.565,239.834 a 16.739,16.739 0 1 0 0,-33.478 v 2.234 a 14.492,14.492 0 1 1 -5.706,1.165 l -0.879,-2.053 a 16.741,16.741 0 0 0 6.585,32.131 z"
         transform="translate(-526.584,-144.077)"
         fill="#eab308"
         id="path10" />
      <path
         d="m 419.329,340.706 -35.151,15.842 9.249,20.524 35.152,-15.842 a 23.628,23.628 0 0 0 18.249,-0.816 c 10.957,-4.938 16.527,-16.292 12.44,-25.36 -4.087,-9.068 -16.282,-12.416 -27.239,-7.478 a 23.629,23.629 0 0 0 -12.7,13.131 z"
         transform="translate(-210.389,-130.161)"
         fill="#ffb9b9"
         id="path11" />
      <path
         d="m 474.685,286.135 28.622,82.685 66.784,-20.671 12.721,34.982 -99.036,27.148 L 423.589,303.3"
         transform="translate(-376.615,-134.743)"
         fill="#eab308"
         id="path12" />
    </g>
    <path
       d="m 905.679,673.412 c 0,-5.8 1.949,-10.513 4.341,-10.524 h 180.26 c 2.4,0.01 4.341,4.72 4.355,10.524 v 154.887 c 4e-4,1.11591 0.8474,2.04944 1.958,2.158 1.7507,0.168 3.5017,0.32433 5.253,0.469 0.044,0 0.087,0.01 0.13,0.01 0.953,0.087 1.906,0.152 2.858,0.227 h 0.011 c 0.49,-0.906 0.9747,-1.82 1.454,-2.742 0.162,-0.31059 0.2468,-0.65568 0.247,-1.006 V 659.759 c 0,-1.6 -0.065,-3.215 -0.174,-4.807 -0.1546,-2.18555 -0.4257,-4.36131 -0.812,-6.518 -1.829,-10.058 -5.966,-16.868 -10.665,-16.89 H 905.419 c -0.68604,0.004 -1.36405,0.14797 -1.993,0.422 -0.92349,0.40874 -1.75841,0.99366 -2.458,1.722 -0.94921,0.9866 -1.76118,2.09658 -2.414,3.3 -2.317,4.082 -3.973,10.167 -4.558,17.244 0,0.065 -0.01,0.13 -0.01,0.2 -0.152,1.754 -0.227,3.54 -0.217,5.327 l -0.152,23.2 -0.1,13.837 -0.293,43.416 -0.108,15.415 -0.476,74.291 v 0 c 0,0 0.9693,2.165 2.165,2.165 h 8.709 c 1.1957,0 2.165,-0.9693 2.165,-2.165 z"
       fill="#e6e6e6"
       id="path14"
       sodipodi:nodetypes="scccccccccccscccccccccccccccsssss" />
    <path
       d="m 1033.063,567.178 12.541,55.169 8.012,8.776 h 5.78 l -23.826,-100.308 -1.178,17.045 v 0.012 z"
       fill="#090814"
       id="path15" />
    <path
       d="m 972.719,623.56 73.559,-0.466 6.532,-0.044 4.656,-0.032 5.424,-0.032 h 0.044 a 2.993,2.993 0 0 1 2.1,0.867 l 9.159,9.16 a 2.362,2.362 0 0 1 0.487,0.7 1.054,1.054 0 0 1 0.141,0.238 3.058,3.058 0 0 1 -2.75,4.267 h -95.292 a 3.032,3.032 0 0 1 -2.729,-1.732 l -0.747,-1.624 -1.537,-3.3 -1.742,-3.725 a 2.968,2.968 0 0 1 -0.281,-1.267 3.015,3.015 0 0 1 2.978,-3 z"
       fill="#090814"
       id="path16" />
    <path
       d="m 973.302,634.848 0.752,1.63 a 3.031,3.031 0 0 0 2.721,1.73 h 95.3 a 3.048,3.048 0 0 0 2.746,-4.267 0.906,0.906 0 0 0 -0.138,-0.238 z"
       opacity="0.17"
       style="isolation:isolate"
       id="path17" />
    <path
       d="m 1034.393,547.86 v 0.012 l 20.4,83.258 h 4.6 l -23.822,-100.315 z"
       opacity="0.17"
       style="isolation:isolate"
       id="path18" />
    <path
       d="m 1009.36,567.42036 28.876,-197.07604 a 3.135,2.8122835 0 0 1 1.191,-1.86499 l 19.878,-22.31976 1.786,-1.23345 a 3.171,2.8445777 0 0 1 2.317,-0.55349 l 2.988,0.35882 a 3.135,2.8122835 0 0 1 2.707,3.14689 v 0 l -29.925,204.19601 v 0.009 l -1.833,12.49066 -2.177,14.8311 v 0.0197 l -3.378,23.07688 a 3.066,2.7503864 0 0 1 -1.353,1.96187 3.111,2.7907541 0 0 1 -2.526,0.40816 l -1.9,-0.427 a 3.182,2.8544454 0 0 1 -1.8,-1.10697 l -0.845,-1.07648 -0.39,-0.50504 -13.079,-32.3435 a 3.114,2.7934453 0 0 1 -0.537,-1.99237 z"
       fill="#090814"
       id="path19"
       style="stroke-width:0.947133" />
    <path
       d="m 1059.311,346.16047 -36.324,255.59666 0.395,0.49966 0.841,1.07647 a 3.173,2.8463718 0 0 0 1.8,1.10787 l 1.9,0.4279 a 3.146,2.8221512 0 0 0 3.876,-2.36824 l 37.3,-254.61886 a 3.135,2.8122835 0 0 0 -2.7,-3.15496 l -3,-0.35344 a 3.091,2.7728129 0 0 0 -2.307,0.55617 z"
       fill="#090814"
       opacity="0.17"
       style="isolation:isolate;stroke-width:0.947133"
       id="path20" />
    <path
       d="m 1058.238,353.47061 -19.276,24.68082 -22.91,156.37283 12.421,22.10446 z"
       fill="#eab308"
       id="path21"
       style="stroke-width:0.947133" />
    <g
       transform="translate(717.81014,433.23543)"
       id="g23">
      <path
         d="m 7.819,0 h 154.147 a 7.819,7.819 0 1 1 0,15.638 H 7.819 A 7.819,7.819 0 0 1 7.819,0 Z"
         fill="#eab308"
         id="path22" />
      <path
         d="m 0,0 h 32.393 a 7.819,7.819 0 1 1 0,15.638 H 0 Z"
         transform="translate(129.573)"
         fill="#090814"
         id="path23" />
    </g>
    <path
       d="m 802.70714,394.78843 a 20.6,20.6 0 0 1 0,-41.192 2.06,2.06 0 0 1 0,4.119 16.477,16.477 0 1 0 16.473,16.481 2.06,2.06 0 1 1 4.119,0 20.619,20.619 0 0 1 -20.592,20.592 z"
       fill="#eab308"
       id="path24" />
  </g>
</svg>
