<?xml version="1.0" encoding="UTF-8" standalone="no"?>
<svg
   width="691.94202"
   height="539.84595"
   viewBox="0 0 691.942 539.84594"
   role="img"
   artist="Katerina Limpitsouni"
   source="https://undraw.co/"
   version="1.1"
   id="svg1"
   sodipodi:docname="social_serenity.svg"
   inkscape:version="1.4.2 (ebf0e940d0, 2025-05-08)"
   xmlns:inkscape="http://www.inkscape.org/namespaces/inkscape"
   xmlns:sodipodi="http://sodipodi.sourceforge.net/DTD/sodipodi-0.dtd"
   xmlns="http://www.w3.org/2000/svg"
   xmlns:svg="http://www.w3.org/2000/svg">
  <defs
     id="defs1" />
  <sodipodi:namedview
     id="namedview1"
     pagecolor="#ffffff"
     bordercolor="#000000"
     borderopacity="0.25"
     inkscape:showpageshadow="2"
     inkscape:pageopacity="0.0"
     inkscape:pagecheckerboard="0"
     inkscape:deskcolor="#d1d1d1"
     inkscape:zoom="1.9375895"
     inkscape:cx="365.91857"
     inkscape:cy="240.50501"
     inkscape:window-width="2560"
     inkscape:window-height="1371"
     inkscape:window-x="0"
     inkscape:window-y="0"
     inkscape:window-maximized="1"
     inkscape:current-layer="Group_14" />
  <g
     id="Group_14"
     data-name="Group 14"
     transform="translate(-251.769,-242.21408)">
    <g
       id="Group_9"
       data-name="Group 9"
       transform="translate(-237,346.007)">
      <path
         id="Path_141-222"
         data-name="Path 141"
         d="M 827.279,436.053 H 539.012 c -2.9465,-0.004 -5.33414,-2.3915 -5.338,-5.338 v -74.508 c 0.004,-2.9465 2.3915,-5.33414 5.338,-5.338 h 288.267 c 2.9465,0.004 5.33414,2.3915 5.338,5.338 v 74.507 c -0.003,2.94673 -2.39127,5.33469 -5.338,5.338 z M 539.012,353 c -1.76571,0.004 -3.19615,1.43429 -3.2,3.2 v 74.514 c 0.004,1.76571 1.43429,3.19615 3.2,3.2 h 288.267 c 1.76594,-0.003 3.1967,-1.43406 3.2,-3.2 v -74.507 c -0.004,-1.76571 -1.43429,-3.19615 -3.2,-3.2 z"
         transform="translate(-44.905)"
         fill="#e6e6e6"
         sodipodi:nodetypes="ccccccccccccccccccc" />
      <circle
         id="Ellipse_19"
         data-name="Ellipse 19"
         cx="21.745001"
         cy="21.745001"
         r="21.745001"
         transform="translate(517.152,370.472)"
         fill="#e6e6e6" />
      <path
         id="Path_142-223"
         data-name="Path 142"
         d="m 634.024,377.72 a 3.624,3.624 0 0 0 0,7.248 H 804.88 a 3.624,3.624 0 0 0 0,-7.248 z"
         transform="translate(-44.905)"
         fill="#e6e6e6" />
      <path
         id="Path_143-224"
         data-name="Path 143"
         d="m 634.024,399.466 a 3.624,3.624 0 0 0 0,7.248 h 73.52 a 3.624,3.624 0 0 0 0,-7.248 z"
         transform="translate(-44.905)"
         fill="#e6e6e6" />
      <path
         id="Path_154-225"
         data-name="Path 154"
         d="M 895.768,350.074 H 607.5 a 5.344,5.344 0 0 1 -5.338,-5.338 V 218.229 a 5.344,5.344 0 0 1 5.338,-5.338 h 288.268 a 5.344,5.344 0 0 1 5.338,5.338 v 126.507 a 5.344,5.344 0 0 1 -5.338,5.338 z"
         transform="translate(-44.905)"
         fill="#eab308" />
      <path
         id="Path_155-226"
         data-name="Path 155"
         d="m 666.206,256.985 a 3.624,3.624 0 0 0 0,7.248 h 170.857 a 3.624,3.624 0 0 0 0,-7.248 z"
         transform="translate(-44.905)"
         fill="#ffffff" />
      <path
         id="Path_156-227"
         data-name="Path 156"
         d="m 666.206,277.985 a 3.624,3.624 0 0 0 0,7.248 h 170.857 a 3.624,3.624 0 0 0 0,-7.248 z"
         transform="translate(-44.905)"
         fill="#ffffff" />
      <path
         id="Path_157-228"
         data-name="Path 157"
         d="m 666.206,298.731 a 3.624,3.624 0 0 0 0,7.248 h 73.52 a 3.624,3.624 0 0 0 0,-7.248 z"
         transform="translate(-44.905)"
         fill="#ffffff" />
    </g>
    <g
       id="Group_10"
       data-name="Group 10"
       transform="translate(100,164.584)">
      <path
         id="Path_138-229"
         data-name="Path 138"
         d="M 883.279,615.053 H 595.012 a 5.345,5.345 0 0 1 -5.338,-5.338 v -71.508 a 5.345,5.345 0 0 1 5.338,-5.338 h 288.267 a 5.345,5.345 0 0 1 5.338,5.338 v 71.507 a 5.345,5.345 0 0 1 -5.338,5.339 z M 595.012,535 a 3.207,3.207 0 0 0 -3.2,3.2 v 71.507 a 3.207,3.207 0 0 0 3.2,3.2 h 288.267 a 3.206,3.206 0 0 0 3.2,-3.2 v -71.5 a 3.206,3.206 0 0 0 -3.2,-3.2 z"
         transform="translate(-44.906)"
         fill="#e6e6e6" />
      <circle
         id="Ellipse_18"
         data-name="Ellipse 18"
         cx="21.745001"
         cy="21.745001"
         r="21.745001"
         transform="translate(573.152,549.472)"
         fill="#e6e6e6" />
      <path
         id="Path_139-230"
         data-name="Path 139"
         d="m 690.024,556.72 a 3.624,3.624 0 0 0 0,7.248 H 860.88 a 3.624,3.624 0 0 0 0,-7.248 z"
         transform="translate(-44.906)"
         fill="#e6e6e6" />
      <path
         id="Path_140-231"
         data-name="Path 140"
         d="m 690.024,578.466 a 3.624,3.624 0 0 0 0,7.248 h 73.52 a 3.624,3.624 0 0 0 0,-7.248 z"
         transform="translate(-44.906)"
         fill="#e6e6e6" />
    </g>
    <g
       id="Group_11"
       data-name="Group 11"
       transform="matrix(0.97868295,0.20790547,-0.20790547,0.97868295,115.14489,-35.466051)">
      <path
         id="Path_135-232"
         data-name="Path 135"
         d="M 811.279,721.053 H 523.012 a 5.345,5.345 0 0 1 -5.338,-5.338 v -71.508 a 5.344,5.344 0 0 1 5.338,-5.338 h 288.267 a 5.345,5.345 0 0 1 5.338,5.338 v 71.507 a 5.345,5.345 0 0 1 -5.338,5.338 z M 523.012,641 a 3.207,3.207 0 0 0 -3.2,3.2 v 71.507 a 3.207,3.207 0 0 0 3.2,3.2 h 288.267 a 3.206,3.206 0 0 0 3.2,-3.2 v -71.5 a 3.207,3.207 0 0 0 -3.2,-3.2 z"
         transform="translate(112.094,-174.499)"
         fill="#e6e6e6" />
      <circle
         id="Ellipse_17"
         data-name="Ellipse 17"
         cx="21.745001"
         cy="21.745001"
         r="21.745001"
         transform="translate(658.152,480.973)"
         fill="#e6e6e6" />
      <path
         id="Path_136-233"
         data-name="Path 136"
         d="m 618.024,662.72 a 3.624,3.624 0 0 0 0,7.248 H 788.88 a 3.624,3.624 0 1 0 0,-7.248 z"
         transform="translate(112.094,-174.499)"
         fill="#e6e6e6" />
      <path
         id="Path_137-234"
         data-name="Path 137"
         d="m 618.024,684.466 a 3.624,3.624 0 1 0 0,7.248 h 73.52 a 3.624,3.624 0 0 0 0,-7.248 z"
         transform="translate(112.094,-174.499)"
         fill="#e6e6e6" />
    </g>
    <g
       id="Group_12"
       data-name="Group 12"
       transform="matrix(0.99899572,-0.0399067,0.0399067,0.99899572,-112.95183,-33.123517)">
      <path
         id="Path_138-2-235"
         data-name="Path 138"
         d="M 883.279,615.053 H 595.012 a 5.345,5.345 0 0 1 -5.338,-5.338 v -71.508 a 5.345,5.345 0 0 1 5.338,-5.338 h 288.267 a 5.345,5.345 0 0 1 5.338,5.338 v 71.507 a 5.345,5.345 0 0 1 -5.338,5.339 z M 595.012,535 a 3.207,3.207 0 0 0 -3.2,3.2 v 71.507 a 3.207,3.207 0 0 0 3.2,3.2 h 288.267 a 3.206,3.206 0 0 0 3.2,-3.2 v -71.5 a 3.206,3.206 0 0 0 -3.2,-3.2 z"
         fill="#e6e6e6"
         transform="translate(-44.906)" />
      <circle
         id="Ellipse_18-2"
         data-name="Ellipse 18"
         cx="21.745001"
         cy="21.745001"
         r="21.745001"
         transform="translate(573.152,549.472)"
         fill="#e6e6e6" />
      <path
         id="Path_139-2-236"
         data-name="Path 139"
         d="m 690.024,556.72 a 3.624,3.624 0 0 0 0,7.248 H 860.88 a 3.624,3.624 0 0 0 0,-7.248 z"
         transform="translate(-44.906)"
         fill="#e6e6e6" />
      <path
         id="Path_140-2-237"
         data-name="Path 140"
         d="m 690.024,578.466 a 3.624,3.624 0 0 0 0,7.248 h 73.52 a 3.624,3.624 0 0 0 0,-7.248 z"
         transform="translate(-44.906)"
         fill="#e6e6e6" />
    </g>
    <g
       id="Group_13"
       data-name="Group 13"
       transform="translate(-1681.6771,-1394.221)">
      <circle
         id="Ellipse_21"
         data-name="Ellipse 21"
         cx="33"
         cy="33"
         r="33"
         transform="translate(2259.759,1653.646)"
         fill="#2f2e41" />
      <circle
         id="Ellipse_22"
         data-name="Ellipse 22"
         cx="24.561001"
         cy="24.561001"
         r="24.561001"
         transform="translate(2268.868,1673.439)"
         fill="#feb8b8" />
      <path
         id="Path_159-238"
         data-name="Path 159"
         d="m 902.978,629.758 c 0,0 -45,-8 -74,2 l 8.5,67.5 -2,11 60,-2 -4,-11 z"
         transform="translate(1427.781,1103.888)"
         fill="#feb8b8" />
      <path
         id="Path_160-239"
         data-name="Path 160"
         d="m 871.707,702.6 a 302.545,302.545 0 0 1 -31,-1.964 8.492,8.492 0 0 1 -7.561,-8.645 l 0.73,-31.567 0.085,-0.123 c 8.694,-12.593 4.459,-21.791 1.2,-26.743 a 6.4,6.4 0 0 1 -1.052,-3.522 v 0 c -0.5,-0.7 -0.612,0.405 -0.3,-0.379 a 2.51,2.51 0 0 1 1.836,-1.538 l 4.964,-0.992 a 2.5,2.5 0 0 1 2.858,1.651 c 1.668,4.977 8.169,20.991 23.066,20.987 12.445,0 17.089,-17.611 17.367,-21.681 a 2.5,2.5 0 0 1 2.493,-2.322 h 6.2 a 2.617,2.617 0 0 1 2.066,0.934 2.48,2.48 0 0 1 0.244,2.751 c -7.076,13.01 3.265,33.6 3.37,33.8 l 0.066,0.13 -2.918,30.293 a 8.541,8.541 0 0 1 -6.574,7.477 c -4.511,1.059 -10.608,1.453 -17.14,1.453 z"
         transform="translate(1427.781,1103.888)"
         fill="#cccccc" />
      <path
         id="Path_161-240"
         data-name="Path 161"
         d="m 814.6,772.888 c -6.72,0 -12.872,-0.74 -17.76,-2.489 -5.81,-2.079 -9.458,-5.441 -10.844,-10 a 13.2,13.2 0 0 1 1.606,-11.673 c 8.595,-12.87 38.421,-16.5 42.423,-16.929 l 2.12,-17.667 a 8.531,8.531 0 0 1 8.307,-7.486 l 50.232,-0.784 a 8.421,8.421 0 0 1 8.5,6.977 l 2.854,15.7 -32.938,15.975 4.98,13.945 -0.325,0.217 c -9.64,6.426 -37.363,14.213 -59.155,14.214 z"
         transform="translate(1427.781,1103.888)"
         fill="#2f2e41" />
      <path
         id="Path_162-241"
         data-name="Path 162"
         d="m 897.478,726.258 c 0,0 46,-6 43,18 -3,24 -38,41 -91,0 l 6,-12 c 0,0 30,8 42,2 z"
         transform="translate(1427.781,1103.888)"
         fill="#2f2e41" />
      <path
         id="Path_163-242"
         data-name="Path 163"
         d="m 856.478,735.258 c 0,0 0,-12 -10,-11 -10,1 -28,2 -28,2 0,0 -6,4 2,6 8,2 32,12 32,12 z"
         transform="translate(1427.781,1103.888)"
         fill="#feb8b8" />
      <path
         id="Path_164-243"
         data-name="Path 164"
         d="m 873.478,733.258 c 0,0 0,-12 10,-11 10,1 28,2 28,2 0,0 6,4 -2,6 -8,2 -32,12 -32,12 z"
         transform="translate(1427.781,1103.888)"
         fill="#feb8b8" />
      <path
         id="Path_165-244"
         data-name="Path 165"
         d="m 933.4,730.985 -14.921,-51.727 c 0,0 -3,-18 -6,-35 -3,-17 -14,-15 -14,-15 l -2,1 v 27 l 2,25 19.965,54.9 a 10.5,10.5 0 1 0 14.956,-6.177 z"
         transform="translate(1427.781,1103.888)"
         fill="#feb8b8" />
      <path
         id="Path_166-245"
         data-name="Path 166"
         d="m 832.478,631.258 c 0,0 -11,-2 -14,15 -3,17 -6,35 -6,35 l -14.921,51.727 a 10.5,10.5 0 1 0 14.956,6.177 l 19.965,-54.9 2,-25 v -24.768 a 3.618,3.618 0 0 0 -2,-3.236 z"
         transform="translate(1427.781,1103.888)"
         fill="#feb8b8" />
      <path
         id="Path_167-246"
         data-name="Path 167"
         d="m 841.335,579.024 a 73.043,73.043 0 0 0 31.6,10.412 l -3.331,-3.991 a 24.48,24.48 0 0 0 7.561,1.5 8.281,8.281 0 0 0 6.75,-3.159 7.7,7.7 0 0 0 0.516,-7.115 14.588,14.588 0 0 0 -4.589,-5.739 27.323,27.323 0 0 0 -25.431,-4.545 16.33,16.33 0 0 0 -7.6,4.872 9.236,9.236 0 0 0 -1.863,8.561"
         transform="translate(1427.781,1103.888)"
         fill="#2f2e41" />
      <path
         id="Path_168-247"
         data-name="Path 168"
         d="m 868.084,553.421 a 75.485,75.485 0 0 0 -27.463,-17.759 c -6.639,-2.459 -13.865,-3.979 -20.805,-2.582 -6.94,1.397 -13.5,6.2 -15.44,13.008 -1.583,5.568 0.052,11.564 2.509,16.806 2.457,5.242 5.738,10.1 7.725,15.54 A 35.468,35.468 0 0 1 778.92,626 c 6.819,0.914 13.105,4.119 19.771,5.825 6.666,1.706 14.533,1.59 19.486,-3.185 5.241,-5.052 5.346,-13.267 5.092,-20.542 l -1.13,-32.445 c -0.192,-5.515 -0.356,-11.208 1.633,-16.356 1.989,-5.148 6.716,-9.656 12.235,-9.609 4.183,0.036 7.884,2.569 11.239,5.068 3.355,2.499 6.9,5.165 11.071,5.536 4.171,0.371 8.923,-2.711 8.611,-6.883"
         transform="translate(1427.781,1103.888)"
         fill="#2f2e41" />
    </g>
  </g>
</svg>
